<?xml version="1.0" encoding="utf-8"?><svg xmlns="http://www.w3.org/2000/svg" xmlns:xlink="http://www.w3.org/1999/xlink" width="1536" height="863" preserveAspectRatio="xMidYMid" viewBox="0 0 1536 863" style="z-index:1;display:block;background-color:rgb(241, 242, 243);animation-play-state:paused" ><g transform="" style="animation-play-state:paused" ><g id="bk-0.02967406265838468" style="animation-play-state:paused" ><path d="M781 349L637 349L636 492z" stroke="#343141" fill="#343141" style="animation-play-state:paused" ></path>
<path d="M637 349L596 452L636 492z" stroke="#363343" fill="#363343" style="animation-play-state:paused" ></path>
<path d="M636 492L814 526L781 349z" stroke="#3a3747" fill="#3a3747" style="animation-play-state:paused" ></path>
<path d="M596 452L593 593L636 492z" stroke="#3d3a4a" fill="#3d3a4a" style="animation-play-state:paused" ></path>
<path d="M636 492L593 593L814 526z" stroke="#403d4d" fill="#403d4d" style="animation-play-state:paused" ></path>
<path d="M776 200L635 203L637 349z" stroke="#2d2b39" fill="#2d2b39" style="animation-play-state:paused" ></path>
<path d="M637 349L546 258L596 452z" stroke="#322f3e" fill="#322f3e" style="animation-play-state:paused" ></path>
<path d="M1021 301L776 200L781 349z" stroke="#302d3c" fill="#302d3c" style="animation-play-state:paused" ></path>
<path d="M781 349L776 200L637 349z" stroke="#302d3c" fill="#302d3c" style="animation-play-state:paused" ></path>
<path d="M635 203L546 258L637 349z" stroke="#2e2c39" fill="#2e2c39" style="animation-play-state:paused" ></path>
<path d="M396 684L558 702L593 593z" stroke="#474455" fill="#474455" style="animation-play-state:paused" ></path>
<path d="M776 200L746 170L635 203z" stroke="#2b2935" fill="#2b2935" style="animation-play-state:paused" ></path>
<path d="M814 526L981 405L781 349z" stroke="#383545" fill="#383545" style="animation-play-state:paused" ></path>
<path d="M776 200L800 80L746 170z" stroke="#292733" fill="#292733" style="animation-play-state:paused" ></path>
<path d="M917 629L973 541L814 526z" stroke="#454252" fill="#454252" style="animation-play-state:paused" ></path>
<path d="M814 526L973 541L981 405z" stroke="#3f3c4c" fill="#3f3c4c" style="animation-play-state:paused" ></path>
<path d="M724 724L917 629L814 526z" stroke="#494656" fill="#494656" style="animation-play-state:paused" ></path>
<path d="M746 170L583 151L635 203z" stroke="#2a2834" fill="#2a2834" style="animation-play-state:paused" ></path>
<path d="M635 203L583 151L546 258z" stroke="#2b2935" fill="#2b2935" style="animation-play-state:paused" ></path>
<path d="M593 593L724 724L814 526z" stroke="#474454" fill="#474454" style="animation-play-state:paused" ></path>
<path d="M364 508L593 593L596 452z" stroke="#3c3949" fill="#3c3949" style="animation-play-state:paused" ></path>
<path d="M593 593L558 702L724 724z" stroke="#4a4757" fill="#4a4757" style="animation-play-state:paused" ></path>
<path d="M1094 230L1021 301L1233 369z" stroke="#322f3e" fill="#322f3e" style="animation-play-state:paused" ></path>
<path d="M981 405L1021 301L781 349z" stroke="#333140" fill="#333140" style="animation-play-state:paused" ></path>
<path d="M322 322L370 370L352 208z" stroke="#2e2c39" fill="#2e2c39" style="animation-play-state:paused" ></path>
<path d="M546 258L370 370L596 452z" stroke="#322f3e" fill="#322f3e" style="animation-play-state:paused" ></path>
<path d="M1020 156L800 80L776 200z" stroke="#292733" fill="#292733" style="animation-play-state:paused" ></path>
<path d="M746 170L731 11L583 151z" stroke="#272531" fill="#272531" style="animation-play-state:paused" ></path>
<path d="M370 370L364 508L596 452z" stroke="#353242" fill="#353242" style="animation-play-state:paused" ></path>
<path d="M724 724L883 739L917 629z" stroke="#504d5d" fill="#504d5d" style="animation-play-state:paused" ></path>
<path d="M1099 667L1130 554L973 541z" stroke="#494656" fill="#494656" style="animation-play-state:paused" ></path>
<path d="M558 702L651 795L724 724z" stroke="#504d5d" fill="#504d5d" style="animation-play-state:paused" ></path>
<path d="M724 724L837 837L883 739z" stroke="#555262" fill="#555262" style="animation-play-state:paused" ></path>
<path d="M352 208L370 370L546 258z" stroke="#2d2b39" fill="#2d2b39" style="animation-play-state:paused" ></path>
<path d="M370 370L266 410L364 508z" stroke="#343140" fill="#343140" style="animation-play-state:paused" ></path>
<path d="M1021 301L1020 156L776 200z" stroke="#2d2b38" fill="#2d2b38" style="animation-play-state:paused" ></path>
<path d="M364 508L396 684L593 593z" stroke="#413e4e" fill="#413e4e" style="animation-play-state:paused" ></path>
<path d="M558 702L546 834L651 795z" stroke="#514e5e" fill="#514e5e" style="animation-play-state:paused" ></path>
<path d="M297 585L396 684L364 508z" stroke="#403d4d" fill="#403d4d" style="animation-play-state:paused" ></path>
<path d="M843 -21L731 11L800 80z" stroke="#23222c" fill="#23222c" style="animation-play-state:paused" ></path>
<path d="M800 80L731 11L746 170z" stroke="#262430" fill="#262430" style="animation-play-state:paused" ></path>
<path d="M583 151L352 208L546 258z" stroke="#2a2835" fill="#2a2835" style="animation-play-state:paused" ></path>
<path d="M303 159L352 208L362 74z" stroke="#272531" fill="#272531" style="animation-play-state:paused" ></path>
<path d="M1180 460L1021 301L981 405z" stroke="#363343" fill="#363343" style="animation-play-state:paused" ></path>
<path d="M1021 301L1094 230L1020 156z" stroke="#2e2b39" fill="#2e2b39" style="animation-play-state:paused" ></path>
<path d="M651 795L837 837L724 724z" stroke="#555262" fill="#555262" style="animation-play-state:paused" ></path>
<path d="M1099 667L973 541L917 629z" stroke="#4a4758" fill="#4a4758" style="animation-play-state:paused" ></path>
<path d="M973 541L1130 554L981 405z" stroke="#403d4e" fill="#403d4e" style="animation-play-state:paused" ></path>
<path d="M1099 667L917 629L883 739z" stroke="#504d5d" fill="#504d5d" style="animation-play-state:paused" ></path>
<path d="M130 274L266 410L322 322z" stroke="#2f2c3a" fill="#2f2c3a" style="animation-play-state:paused" ></path>
<path d="M322 322L266 410L370 370z" stroke="#312e3d" fill="#312e3d" style="animation-play-state:paused" ></path>
<path d="M266 410L297 585L364 508z" stroke="#383545" fill="#383545" style="animation-play-state:paused" ></path>
<path d="M389 821L546 834L558 702z" stroke="#504d5d" fill="#504d5d" style="animation-play-state:paused" ></path>
<path d="M651 795L699 987L837 837z" stroke="#5a5767" fill="#5a5767" style="animation-play-state:paused" ></path>
<path d="M389 821L558 702L396 684z" stroke="#4c4959" fill="#4c4959" style="animation-play-state:paused" ></path>
<path d="M1000 856L1099 667L883 739z" stroke="#575464" fill="#575464" style="animation-play-state:paused" ></path>
<path d="M1015 7L843 -21L800 80z" stroke="#23222c" fill="#23222c" style="animation-play-state:paused" ></path>
<path d="M1015 7L800 80L1020 156z" stroke="#262530" fill="#262530" style="animation-play-state:paused" ></path>
<path d="M1255 535L1180 460L1130 554z" stroke="#434051" fill="#434051" style="animation-play-state:paused" ></path>
<path d="M1130 554L1180 460L981 405z" stroke="#3f3c4c" fill="#3f3c4c" style="animation-play-state:paused" ></path>
<path d="M362 74L352 208L583 151z" stroke="#272531" fill="#272531" style="animation-play-state:paused" ></path>
<path d="M352 208L303 159L322 322z" stroke="#2b2935" fill="#2b2935" style="animation-play-state:paused" ></path>
<path d="M536 -40L362 74L583 151z" stroke="#24222d" fill="#24222d" style="animation-play-state:paused" ></path>
<path d="M536 -40L583 151L731 11z" stroke="#23222c" fill="#23222c" style="animation-play-state:paused" ></path>
<path d="M680 -184L536 -40L731 11z" stroke="#1e1d26" fill="#1e1d26" style="animation-play-state:paused" ></path>
<path d="M303 735L389 821L396 684z" stroke="#4b4858" fill="#4b4858" style="animation-play-state:paused" ></path>
<path d="M297 585L303 735L396 684z" stroke="#454252" fill="#454252" style="animation-play-state:paused" ></path>
<path d="M177 609L303 735L297 585z" stroke="#423f4f" fill="#423f4f" style="animation-play-state:paused" ></path>
<path d="M1149 141L1020 156L1094 230z" stroke="#2b2936" fill="#2b2936" style="animation-play-state:paused" ></path>
<path d="M1149 141L1015 7L1020 156z" stroke="#282632" fill="#282632" style="animation-play-state:paused" ></path>
<path d="M1275 267L1149 141L1094 230z" stroke="#2d2b39" fill="#2d2b39" style="animation-play-state:paused" ></path>
<path d="M837 837L1000 856L883 739z" stroke="#5a5767" fill="#5a5767" style="animation-play-state:paused" ></path>
<path d="M833 977L1000 856L837 837z" stroke="#5f5c6c" fill="#5f5c6c" style="animation-play-state:paused" ></path>
<path d="M1255 535L1233 369L1180 460z" stroke="#3e3b4b" fill="#3e3b4b" style="animation-play-state:paused" ></path>
<path d="M1180 460L1233 369L1021 301z" stroke="#363343" fill="#363343" style="animation-play-state:paused" ></path>
<path d="M1210 778L1207 631L1099 667z" stroke="#545161" fill="#545161" style="animation-play-state:paused" ></path>
<path d="M1099 667L1207 631L1130 554z" stroke="#4d495a" fill="#4d495a" style="animation-play-state:paused" ></path>
<path d="M536 -40L406 -26L362 74z" stroke="#212029" fill="#212029" style="animation-play-state:paused" ></path>
<path d="M150 150L130 274L303 159z" stroke="#282632" fill="#282632" style="animation-play-state:paused" ></path>
<path d="M1207 631L1255 535L1130 554z" stroke="#494656" fill="#494656" style="animation-play-state:paused" ></path>
<path d="M99 387L177 609L266 410z" stroke="#343141" fill="#343141" style="animation-play-state:paused" ></path>
<path d="M266 410L177 609L297 585z" stroke="#3a3747" fill="#3a3747" style="animation-play-state:paused" ></path>
<path d="M303 735L292 868L389 821z" stroke="#4e4b5b" fill="#4e4b5b" style="animation-play-state:paused" ></path>
<path d="M569 1001L699 987L546 834z" stroke="#5a5768" fill="#5a5768" style="animation-play-state:paused" ></path>
<path d="M546 834L699 987L651 795z" stroke="#585565" fill="#585565" style="animation-play-state:paused" ></path>
<path d="M699 987L833 977L837 837z" stroke="#5f5c6c" fill="#5f5c6c" style="animation-play-state:paused" ></path>
<path d="M1357 349L1275 267L1233 369z" stroke="#343140" fill="#343140" style="animation-play-state:paused" ></path>
<path d="M1233 369L1275 267L1094 230z" stroke="#312f3d" fill="#312f3d" style="animation-play-state:paused" ></path>
<path d="M1264 -32L1061 -91L1015 7z" stroke="#212029" fill="#212029" style="animation-play-state:paused" ></path>
<path d="M984 -168L851 -157L843 -21z" stroke="#1d1c24" fill="#1d1c24" style="animation-play-state:paused" ></path>
<path d="M843 -21L851 -157L731 11z" stroke="#201e27" fill="#201e27" style="animation-play-state:paused" ></path>
<path d="M536 -40L529 -191L406 -26z" stroke="#1d1c24" fill="#1d1c24" style="animation-play-state:paused" ></path>
<path d="M984 -168L843 -21L1015 7z" stroke="#201e28" fill="#201e28" style="animation-play-state:paused" ></path>
<path d="M423 999L569 1001L546 834z" stroke="#585565" fill="#585565" style="animation-play-state:paused" ></path>
<path d="M699 987L1003 1003L833 977z" stroke="#625f6f" fill="#625f6f" style="animation-play-state:paused" ></path>
<path d="M423 999L546 834L389 821z" stroke="#545162" fill="#545162" style="animation-play-state:paused" ></path>
<path d="M150 150L303 159L267 -21z" stroke="#24232d" fill="#24232d" style="animation-play-state:paused" ></path>
<path d="M303 159L130 274L322 322z" stroke="#2b2936" fill="#2b2936" style="animation-play-state:paused" ></path>
<path d="M851 -157L680 -184L731 11z" stroke="#1d1c24" fill="#1d1c24" style="animation-play-state:paused" ></path>
<path d="M130 274L99 387L266 410z" stroke="#2f2d3b" fill="#2f2d3b" style="animation-play-state:paused" ></path>
<path d="M82 802L292 868L303 735z" stroke="#4b4858" fill="#4b4858" style="animation-play-state:paused" ></path>
<path d="M1003 1003L1143 855L1000 856z" stroke="#636070" fill="#636070" style="animation-play-state:paused" ></path>
<path d="M1000 856L1143 855L1099 667z" stroke="#5b5869" fill="#5b5869" style="animation-play-state:paused" ></path>
<path d="M1403 683L1435 571L1255 535z" stroke="#4d495a" fill="#4d495a" style="animation-play-state:paused" ></path>
<path d="M1143 855L1210 778L1099 667z" stroke="#5a5767" fill="#5a5767" style="animation-play-state:paused" ></path>
<path d="M1264 -32L1015 7L1149 141z" stroke="#25232e" fill="#25232e" style="animation-play-state:paused" ></path>
<path d="M267 -21L303 159L362 74z" stroke="#23222c" fill="#23222c" style="animation-play-state:paused" ></path>
<path d="M-41 391L13 589L99 387z" stroke="#32303f" fill="#32303f" style="animation-play-state:paused" ></path>
<path d="M371 -205L267 -21L406 -26z" stroke="#1d1c24" fill="#1d1c24" style="animation-play-state:paused" ></path>
<path d="M406 -26L267 -21L362 74z" stroke="#211f29" fill="#211f29" style="animation-play-state:paused" ></path>
<path d="M680 -184L529 -191L536 -40z" stroke="#1b1a22" fill="#1b1a22" style="animation-play-state:paused" ></path>
<path d="M292 868L423 999L389 821z" stroke="#535060" fill="#535060" style="animation-play-state:paused" ></path>
<path d="M1061 -91L984 -168L1015 7z" stroke="#1f1e27" fill="#1f1e27" style="animation-play-state:paused" ></path>
<path d="M851 -157L1084 -212L680 -184z" stroke="#1a1920" fill="#1a1920" style="animation-play-state:paused" ></path>
<path d="M833 977L1003 1003L1000 856z" stroke="#636070" fill="#636070" style="animation-play-state:paused" ></path>
<path d="M569 1001L1003 1003L699 987z" stroke="#605d6d" fill="#605d6d" style="animation-play-state:paused" ></path>
<path d="M1410 258L1300 148L1275 267z" stroke="#2e2c3a" fill="#2e2c3a" style="animation-play-state:paused" ></path>
<path d="M1275 267L1300 148L1149 141z" stroke="#2c2a37" fill="#2c2a37" style="animation-play-state:paused" ></path>
<path d="M1255 535L1357 349L1233 369z" stroke="#3b3848" fill="#3b3848" style="animation-play-state:paused" ></path>
<path d="M1435 571L1357 349L1255 535z" stroke="#423f4f" fill="#423f4f" style="animation-play-state:paused" ></path>
<path d="M13 589L75 651L177 609z" stroke="#3d3a4a" fill="#3d3a4a" style="animation-play-state:paused" ></path>
<path d="M177 609L82 802L303 735z" stroke="#454252" fill="#454252" style="animation-play-state:paused" ></path>
<path d="M292 868L236 956L423 999z" stroke="#535060" fill="#535060" style="animation-play-state:paused" ></path>
<path d="M529 -191L371 -205L406 -26z" stroke="#1b1a21" fill="#1b1a21" style="animation-play-state:paused" ></path>
<path d="M-64 80L0 288L150 150z" stroke="#262530" fill="#262530" style="animation-play-state:paused" ></path>
<path d="M1084 -212L371 -205L529 -191z" stroke="#19181f" fill="#19181f" style="animation-play-state:paused" ></path>
<path d="M1084 -212L529 -191L680 -184z" stroke="#19181f" fill="#19181f" style="animation-play-state:paused" ></path>
<path d="M82 802L236 956L292 868z" stroke="#4e4b5b" fill="#4e4b5b" style="animation-play-state:paused" ></path>
<path d="M1300 148L1264 -32L1149 141z" stroke="#272631" fill="#272631" style="animation-play-state:paused" ></path>
<path d="M1061 -91L1084 -212L984 -168z" stroke="#1c1a22" fill="#1c1a22" style="animation-play-state:paused" ></path>
<path d="M1422 126L1264 -32L1300 148z" stroke="#272531" fill="#272531" style="animation-play-state:paused" ></path>
<path d="M99 387L13 589L177 609z" stroke="#373444" fill="#373444" style="animation-play-state:paused" ></path>
<path d="M75 651L82 802L177 609z" stroke="#423f4f" fill="#423f4f" style="animation-play-state:paused" ></path>
<path d="M0 288L99 387L130 274z" stroke="#2d2b38" fill="#2d2b38" style="animation-play-state:paused" ></path>
<path d="M1554 258L1410 258L1357 349z" stroke="#322f3e" fill="#322f3e" style="animation-play-state:paused" ></path>
<path d="M1357 349L1410 258L1275 267z" stroke="#322f3e" fill="#322f3e" style="animation-play-state:paused" ></path>
<path d="M62 -82L150 150L267 -21z" stroke="#201f28" fill="#201f28" style="animation-play-state:paused" ></path>
<path d="M150 150L0 288L130 274z" stroke="#2a2834" fill="#2a2834" style="animation-play-state:paused" ></path>
<path d="M16 736L82 802L75 651z" stroke="#444051" fill="#444051" style="animation-play-state:paused" ></path>
<path d="M1217 -223L1084 -212L1061 -91z" stroke="#1b1a22" fill="#1b1a22" style="animation-play-state:paused" ></path>
<path d="M984 -168L1084 -212L851 -157z" stroke="#1a1921" fill="#1a1921" style="animation-play-state:paused" ></path>
<path d="M1403 683L1207 631L1210 778z" stroke="#555263" fill="#555263" style="animation-play-state:paused" ></path>
<path d="M1403 683L1255 535L1207 631z" stroke="#4e4b5b" fill="#4e4b5b" style="animation-play-state:paused" ></path>
<path d="M1403 683L1210 778L1438 862z" stroke="#5e5b6b" fill="#5e5b6b" style="animation-play-state:paused" ></path>
<path d="M1438 862L1210 778L1323 1035z" stroke="#686575" fill="#686575" style="animation-play-state:paused" ></path>
<path d="M1323 1035L1159 1015L1003 1003z" stroke="#6b6878" fill="#6b6878" style="animation-play-state:paused" ></path>
<path d="M1003 1003L1159 1015L1143 855z" stroke="#676474" fill="#676474" style="animation-play-state:paused" ></path>
<path d="M1323 1035L1003 1003L569 1001z" stroke="#666373" fill="#666373" style="animation-play-state:paused" ></path>
<path d="M0 288L-41 391L99 387z" stroke="#2e2c3a" fill="#2e2c3a" style="animation-play-state:paused" ></path>
<path d="M371 -205L248 -184L267 -21z" stroke="#1a1921" fill="#1a1921" style="animation-play-state:paused" ></path>
<path d="M-12 852L16 736L-172 836z" stroke="#454252" fill="#454252" style="animation-play-state:paused" ></path>
<path d="M13 589L16 736L75 651z" stroke="#3f3c4c" fill="#3f3c4c" style="animation-play-state:paused" ></path>
<path d="M1554 258L1422 126L1410 258z" stroke="#2e2c3a" fill="#2e2c3a" style="animation-play-state:paused" ></path>
<path d="M1410 258L1422 126L1300 148z" stroke="#2c2a37" fill="#2c2a37" style="animation-play-state:paused" ></path>
<path d="M1574 710L1520 512L1435 571z" stroke="#4e4b5b" fill="#4e4b5b" style="animation-play-state:paused" ></path>
<path d="M1435 571L1520 512L1357 349z" stroke="#413e4e" fill="#413e4e" style="animation-play-state:paused" ></path>
<path d="M-12 852L99 963L82 802z" stroke="#4b4758" fill="#4b4758" style="animation-play-state:paused" ></path>
<path d="M82 802L99 963L236 956z" stroke="#4e4b5b" fill="#4e4b5b" style="animation-play-state:paused" ></path>
<path d="M236 956L99 963L423 999z" stroke="#534f60" fill="#534f60" style="animation-play-state:paused" ></path>
<path d="M107 -181L62 -82L267 -21z" stroke="#1b1a22" fill="#1b1a22" style="animation-play-state:paused" ></path>
<path d="M0 288L-160 272L-41 391z" stroke="#2c2a37" fill="#2c2a37" style="animation-play-state:paused" ></path>
<path d="M1373 -67L1217 -223L1264 -32z" stroke="#1e1d26" fill="#1e1d26" style="animation-play-state:paused" ></path>
<path d="M1264 -32L1217 -223L1061 -91z" stroke="#1e1d25" fill="#1e1d25" style="animation-play-state:paused" ></path>
<path d="M1084 -212L1217 -223L371 -205z" stroke="#19181f" fill="#19181f" style="animation-play-state:paused" ></path>
<path d="M1422 126L1373 -67L1264 -32z" stroke="#24222d" fill="#24222d" style="animation-play-state:paused" ></path>
<path d="M1527 87L1373 -67L1422 126z" stroke="#26242f" fill="#26242f" style="animation-play-state:paused" ></path>
<path d="M16 736L-12 852L82 802z" stroke="#474354" fill="#474354" style="animation-play-state:paused" ></path>
<path d="M-157 563L16 736L13 589z" stroke="#3b3848" fill="#3b3848" style="animation-play-state:paused" ></path>
<path d="M62 -82L-64 80L150 150z" stroke="#21202a" fill="#21202a" style="animation-play-state:paused" ></path>
<path d="M-41 391L-157 563L13 589z" stroke="#343141" fill="#343141" style="animation-play-state:paused" ></path>
<path d="M1323 1035L1210 778L1143 855z" stroke="#666373" fill="#666373" style="animation-play-state:paused" ></path>
<path d="M1403 683L1574 710L1435 571z" stroke="#535060" fill="#535060" style="animation-play-state:paused" ></path>
<path d="M248 -184L107 -181L267 -21z" stroke="#1a1921" fill="#1a1921" style="animation-play-state:paused" ></path>
<path d="M62 -82L-74 -74L-64 80z" stroke="#1e1c25" fill="#1e1c25" style="animation-play-state:paused" ></path>
<path d="M371 -205L107 -181L248 -184z" stroke="#18171e" fill="#18171e" style="animation-play-state:paused" ></path>
<path d="M1593 441L1554 258L1357 349z" stroke="#353242" fill="#353242" style="animation-play-state:paused" ></path>
<path d="M423 999L1323 1035L569 1001z" stroke="#615e6e" fill="#615e6e" style="animation-play-state:paused" ></path>
<path d="M1159 1015L1323 1035L1143 855z" stroke="#6a6778" fill="#6a6778" style="animation-play-state:paused" ></path>
<path d="M-183 393L-157 563L-41 391z" stroke="#312e3d" fill="#312e3d" style="animation-play-state:paused" ></path>
<path d="M-64 80L-160 272L0 288z" stroke="#282631" fill="#282631" style="animation-play-state:paused" ></path>
<path d="M1554 258L1527 87L1422 126z" stroke="#2b2936" fill="#2b2936" style="animation-play-state:paused" ></path>
<path d="M1676 524L1593 441L1520 512z" stroke="#444151" fill="#444151" style="animation-play-state:paused" ></path>
<path d="M1520 512L1593 441L1357 349z" stroke="#3d3a4a" fill="#3d3a4a" style="animation-play-state:paused" ></path>
<path d="M1554 258L1708 124L1527 87z" stroke="#2c2936" fill="#2c2936" style="animation-play-state:paused" ></path>
<path d="M-160 272L-183 393L-41 391z" stroke="#2d2b38" fill="#2d2b38" style="animation-play-state:paused" ></path>
<path d="M1438 862L1574 710L1403 683z" stroke="#5d5a6a" fill="#5d5a6a" style="animation-play-state:paused" ></path>
<path d="M1614 894L1574 710L1438 862z" stroke="#646172" fill="#646172" style="animation-play-state:paused" ></path>
<path d="M-172 836L-19 989L-12 852z" stroke="#484555" fill="#484555" style="animation-play-state:paused" ></path>
<path d="M-12 852L-19 989L99 963z" stroke="#4c4959" fill="#4c4959" style="animation-play-state:paused" ></path>
<path d="M99 963L-19 989L423 999z" stroke="#514e5e" fill="#514e5e" style="animation-play-state:paused" ></path>
<path d="M423 999L-289 1007L1323 1035z" stroke="#595667" fill="#595667" style="animation-play-state:paused" ></path>
<path d="M1502 -82L1440 -144L1373 -67z" stroke="#1f1e27" fill="#1f1e27" style="animation-play-state:paused" ></path>
<path d="M1373 -67L1440 -144L1217 -223z" stroke="#1d1b24" fill="#1d1b24" style="animation-play-state:paused" ></path>
<path d="M-38 -182L-74 -74L62 -82z" stroke="#1a1920" fill="#1a1920" style="animation-play-state:paused" ></path>
<path d="M-64 80L-175 113L-160 272z" stroke="#25232e" fill="#25232e" style="animation-play-state:paused" ></path>
<path d="M-180 -36L-175 113L-64 80z" stroke="#201f28" fill="#201f28" style="animation-play-state:paused" ></path>
<path d="M-344 232L-277 443L-183 393z" stroke="#2c2a37" fill="#2c2a37" style="animation-play-state:paused" ></path>
<path d="M1527 87L1502 -82L1373 -67z" stroke="#23212b" fill="#23212b" style="animation-play-state:paused" ></path>
<path d="M1748 20L1502 -82L1527 87z" stroke="#24232d" fill="#24232d" style="animation-play-state:paused" ></path>
<path d="M-322 542L-211 653L-157 563z" stroke="#353242" fill="#353242" style="animation-play-state:paused" ></path>
<path d="M-157 563L-211 653L16 736z" stroke="#3b3848" fill="#3b3848" style="animation-play-state:paused" ></path>
<path d="M-277 443L-157 563L-183 393z" stroke="#312e3d" fill="#312e3d" style="animation-play-state:paused" ></path>
<path d="M107 -181L-38 -182L62 -82z" stroke="#19181f" fill="#19181f" style="animation-play-state:paused" ></path>
<path d="M-74 -74L-180 -36L-64 80z" stroke="#1e1d25" fill="#1e1d25" style="animation-play-state:paused" ></path>
<path d="M-233 -233L-38 -182L107 -181z" stroke="#16151c" fill="#16151c" style="animation-play-state:paused" ></path>
<path d="M1323 1035L1462 1030L1438 862z" stroke="#6f6c7d" fill="#6f6c7d" style="animation-play-state:paused" ></path>
<path d="M1574 710L1676 524L1520 512z" stroke="#4d495a" fill="#4d495a" style="animation-play-state:paused" ></path>
<path d="M1593 441L1691 395L1554 258z" stroke="#373444" fill="#373444" style="animation-play-state:paused" ></path>
<path d="M1745 737L1676 524L1574 710z" stroke="#545162" fill="#545162" style="animation-play-state:paused" ></path>
<path d="M-211 653L-172 836L16 736z" stroke="#403d4e" fill="#403d4e" style="animation-play-state:paused" ></path>
<path d="M1676 524L1691 395L1593 441z" stroke="#403d4d" fill="#403d4d" style="animation-play-state:paused" ></path>
<path d="M-344 232L-183 393L-160 272z" stroke="#2a2835" fill="#2a2835" style="animation-play-state:paused" ></path>
<path d="M-211 653L-261 747L-172 836z" stroke="#3f3c4c" fill="#3f3c4c" style="animation-play-state:paused" ></path>
<path d="M-283 -139L-180 -36L-233 -233z" stroke="#18171e" fill="#18171e" style="animation-play-state:paused" ></path>
<path d="M-175 113L-260 172L-160 272z" stroke="#26242f" fill="#26242f" style="animation-play-state:paused" ></path>
<path d="M-302 -14L-260 172L-175 113z" stroke="#21202a" fill="#21202a" style="animation-play-state:paused" ></path>
<path d="M1563 987L1614 894L1438 862z" stroke="#6d6a7a" fill="#6d6a7a" style="animation-play-state:paused" ></path>
<path d="M1462 1030L1563 987L1438 862z" stroke="#706d7d" fill="#706d7d" style="animation-play-state:paused" ></path>
<path d="M-322 542L-261 747L-211 653z" stroke="#383545" fill="#383545" style="animation-play-state:paused" ></path>
<path d="M1678 -194L1505 -223L1502 -82z" stroke="#1c1b23" fill="#1c1b23" style="animation-play-state:paused" ></path>
<path d="M1502 -82L1505 -223L1440 -144z" stroke="#1d1b24" fill="#1d1b24" style="animation-play-state:paused" ></path>
<path d="M1440 -144L1505 -223L1217 -223z" stroke="#1a1921" fill="#1a1921" style="animation-play-state:paused" ></path>
<path d="M-344 232L-322 542L-277 443z" stroke="#2e2b39" fill="#2e2b39" style="animation-play-state:paused" ></path>
<path d="M-277 443L-322 542L-157 563z" stroke="#32303f" fill="#32303f" style="animation-play-state:paused" ></path>
<path d="M1614 894L1674 810L1574 710z" stroke="#636071" fill="#636071" style="animation-play-state:paused" ></path>
<path d="M1827 387L1746 306L1691 395z" stroke="#373444" fill="#373444" style="animation-play-state:paused" ></path>
<path d="M1745 737L1674 810L1833 825z" stroke="#636070" fill="#636070" style="animation-play-state:paused" ></path>
<path d="M1746 306L1554 258L1691 395z" stroke="#343141" fill="#343141" style="animation-play-state:paused" ></path>
<path d="M1746 306L1708 124L1554 258z" stroke="#2f2d3b" fill="#2f2d3b" style="animation-play-state:paused" ></path>
<path d="M1827 387L1691 395L1676 524z" stroke="#3e3b4b" fill="#3e3b4b" style="animation-play-state:paused" ></path>
<path d="M-172 836L-206 946L-19 989z" stroke="#484555" fill="#484555" style="animation-play-state:paused" ></path>
<path d="M-367 785L-206 946L-172 836z" stroke="#434050" fill="#434050" style="animation-play-state:paused" ></path>
<path d="M-367 785L-172 836L-261 747z" stroke="#403d4d" fill="#403d4d" style="animation-play-state:paused" ></path>
<path d="M-302 -14L-344 232L-260 172z" stroke="#23212b" fill="#23212b" style="animation-play-state:paused" ></path>
<path d="M-260 172L-344 232L-160 272z" stroke="#272531" fill="#272531" style="animation-play-state:paused" ></path>
<path d="M1701 981L1674 810L1614 894z" stroke="#6d6a7a" fill="#6d6a7a" style="animation-play-state:paused" ></path>
<path d="M1674 810L1745 737L1574 710z" stroke="#5e5b6b" fill="#5e5b6b" style="animation-play-state:paused" ></path>
<path d="M-180 -36L-302 -14L-175 113z" stroke="#1f1d26" fill="#1f1d26" style="animation-play-state:paused" ></path>
<path d="M-283 -139L-302 -14L-180 -36z" stroke="#1b1a22" fill="#1b1a22" style="animation-play-state:paused" ></path>
<path d="M1790 62L1708 124L1884 300z" stroke="#2c2a37" fill="#2c2a37" style="animation-play-state:paused" ></path>
<path d="M1790 62L1748 20L1708 124z" stroke="#272531" fill="#272531" style="animation-play-state:paused" ></path>
<path d="M1708 124L1748 20L1527 87z" stroke="#282631" fill="#282631" style="animation-play-state:paused" ></path>
<path d="M1871 575L1827 387L1676 524z" stroke="#444152" fill="#444152" style="animation-play-state:paused" ></path>
<path d="M-344 232L-367 785L-322 542z" stroke="#322f3e" fill="#322f3e" style="animation-play-state:paused" ></path>
<path d="M-322 542L-367 785L-261 747z" stroke="#3a3747" fill="#3a3747" style="animation-play-state:paused" ></path>
<path d="M1462 1030L1701 981L1563 987z" stroke="#757282" fill="#757282" style="animation-play-state:paused" ></path>
<path d="M1563 987L1701 981L1614 894z" stroke="#726f7f" fill="#726f7f" style="animation-play-state:paused" ></path>
<path d="M1745 737L1871 575L1676 524z" stroke="#504d5d" fill="#504d5d" style="animation-play-state:paused" ></path>
<path d="M1884 300L1708 124L1746 306z" stroke="#302e3c" fill="#302e3c" style="animation-play-state:paused" ></path>
<path d="M-233 -233L-180 -36L-74 -74z" stroke="#19181f" fill="#19181f" style="animation-play-state:paused" ></path>
<path d="M-302 -14L-283 -139L-344 232z" stroke="#1e1d26" fill="#1e1d26" style="animation-play-state:paused" ></path>
<path d="M371 -205L-233 -233L107 -181z" stroke="#16161c" fill="#16161c" style="animation-play-state:paused" ></path>
<path d="M-38 -182L-233 -233L-74 -74z" stroke="#17171d" fill="#17171d" style="animation-play-state:paused" ></path>
<path d="M1217 -223L-233 -233L371 -205z" stroke="#17161d" fill="#17161d" style="animation-play-state:paused" ></path>
<path d="M1505 -223L-233 -233L1217 -223z" stroke="#18171e" fill="#18171e" style="animation-play-state:paused" ></path>
<path d="M1748 20L1678 -194L1502 -82z" stroke="#201e28" fill="#201e28" style="animation-play-state:paused" ></path>
<path d="M1823 -49L1678 -194L1748 20z" stroke="#201f28" fill="#201f28" style="animation-play-state:paused" ></path>
<path d="M-367 785L-289 1007L-206 946z" stroke="#444151" fill="#444151" style="animation-play-state:paused" ></path>
<path d="M-206 946L-289 1007L-19 989z" stroke="#484555" fill="#484555" style="animation-play-state:paused" ></path>
<path d="M-19 989L-289 1007L423 999z" stroke="#4e4b5b" fill="#4e4b5b" style="animation-play-state:paused" ></path>
<path d="M1866 714L1871 575L1745 737z" stroke="#575464" fill="#575464" style="animation-play-state:paused" ></path>
<path d="M1827 387L1884 300L1746 306z" stroke="#353242" fill="#353242" style="animation-play-state:paused" ></path>
<path d="M1871 575L1884 300L1827 387z" stroke="#3d3a4a" fill="#3d3a4a" style="animation-play-state:paused" ></path>
<path d="M1833 825L1866 714L1745 737z" stroke="#605d6d" fill="#605d6d" style="animation-play-state:paused" ></path>
<path d="M1871 575L1883 1019L1884 300z" stroke="#524f60" fill="#524f60" style="animation-play-state:paused" ></path>
<path d="M1701 981L1833 825L1674 810z" stroke="#6b6878" fill="#6b6878" style="animation-play-state:paused" ></path>
<path d="M1884 300L1823 -49L1790 62z" stroke="#292733" fill="#292733" style="animation-play-state:paused" ></path>
<path d="M1790 62L1823 -49L1748 20z" stroke="#25232e" fill="#25232e" style="animation-play-state:paused" ></path>
<path d="M1823 -49L1822 -194L1678 -194z" stroke="#1d1c24" fill="#1d1c24" style="animation-play-state:paused" ></path>
<path d="M1678 -194L1822 -194L1505 -223z" stroke="#1a1921" fill="#1a1921" style="animation-play-state:paused" ></path>
<path d="M1884 300L1822 -194L1823 -49z" stroke="#25232e" fill="#25232e" style="animation-play-state:paused" ></path>
<path d="M1462 1030L1883 1019L1701 981z" stroke="#787585" fill="#787585" style="animation-play-state:paused" ></path>
<path d="M1701 981L1883 1019L1833 825z" stroke="#737080" fill="#737080" style="animation-play-state:paused" ></path>
<path d="M1833 825L1883 1019L1866 714z" stroke="#6a6777" fill="#6a6777" style="animation-play-state:paused" ></path>
<path d="M1866 714L1883 1019L1871 575z" stroke="#615e6e" fill="#615e6e" style="animation-play-state:paused" ></path>
<path d="M1323 1035L1883 1019L1462 1030z" stroke="#767383" fill="#767383" style="animation-play-state:paused" ></path></g>
<style type="text/css" style="animation-play-state:paused" >#bk-0.02967406265838468 path { stroke-width: 1 }</style></g></svg>