<?xml version="1.0" encoding="UTF-8" standalone="no"?>
<svg
   xmlns:dc="http://purl.org/dc/elements/1.1/"
   xmlns:cc="http://creativecommons.org/ns#"
   xmlns:rdf="http://www.w3.org/1999/02/22-rdf-syntax-ns#"
   xmlns:svg="http://www.w3.org/2000/svg"
   xmlns="http://www.w3.org/2000/svg"
   xmlns:sodipodi="http://sodipodi.sourceforge.net/DTD/sodipodi-0.dtd"
   xmlns:inkscape="http://www.inkscape.org/namespaces/inkscape"
   inkscape:version="1.0 (4035a4fb49, 2020-05-01)"
   sodipodi:docname="codepen.svg"
   version="1.1"
   width="512"
   viewBox="0 0 24 24"
   height="512"
   enable-background="new 0 0 24 24"
   id="Bold">
  <metadata
     id="metadata9">
    <rdf:RDF>
      <cc:Work
         rdf:about="">
        <dc:format>image/svg+xml</dc:format>
        <dc:type
           rdf:resource="http://purl.org/dc/dcmitype/StillImage" />
      </cc:Work>
    </rdf:RDF>
  </metadata>
  <defs
     id="defs7" />
  <sodipodi:namedview
     inkscape:current-layer="Bold"
     inkscape:window-maximized="1"
     inkscape:window-y="-9"
     inkscape:window-x="-9"
     inkscape:cy="256"
     inkscape:cx="256"
     inkscape:zoom="1.6210938"
     showgrid="false"
     id="namedview5"
     inkscape:window-height="1001"
     inkscape:window-width="1920"
     inkscape:pageshadow="2"
     inkscape:pageopacity="0"
     guidetolerance="10"
     gridtolerance="10"
     objecttolerance="10"
     borderopacity="1"
     bordercolor="#666666"
     pagecolor="#ffffff" />
  <path
     style="fill:#ffffff"
     id="path2"
     d="m.455 16.512 10.969 7.314c.374.23.774.233 1.152 0l10.969-7.314c.281-.187.455-.522.455-.857v-7.312c0-.335-.174-.67-.455-.857l-10.969-7.313c-.374-.23-.774-.232-1.152 0l-10.969 7.313c-.281.187-.455.522-.455.857v7.312c0 .335.174.67.455.857zm10.514 4.528-8.076-5.384 3.603-2.411 4.473 2.987zm2.062 0v-4.808l4.473-2.987 3.603 2.411zm8.907-7.314-2.585-1.727 2.585-1.728zm-8.907-10.767 8.076 5.384-3.603 2.411-4.473-2.987zm-1.031 6.602 3.643 2.438-3.643 2.438-3.643-2.438zm-1.031-6.602v4.808l-4.473 2.987-3.603-2.411zm-8.906 7.314v-.001l2.585 1.728-2.585 1.728z" />
</svg>
