<?xml version="1.0" standalone="no"?><svg xmlns="http://www.w3.org/2000/svg" viewBox="0 0 1440 320"><path fill="#273036" fill-opacity="1" d="M0,224L40,208C80,192,160,160,240,165.3C320,171,400,213,480,240C560,267,640,277,720,245.3C800,213,880,139,960,96C1040,53,1120,43,1200,69.3C1280,96,1360,160,1400,192L1440,224L1440,320L1400,320C1360,320,1280,320,1200,320C1120,320,1040,320,960,320C880,320,800,320,720,320C640,320,560,320,480,320C400,320,320,320,240,320C160,320,80,320,40,320L0,320Z"></path></svg>